<?xml version="1.0" encoding="UTF-8"?>
<svg xmlns="http://www.w3.org/2000/svg" xmlns:xlink="http://www.w3.org/1999/xlink" width="429pt" height="384pt" viewBox="0 0 429 384" version="1.1">
<defs>
<filter id="alpha" filterUnits="objectBoundingBox" x="0%" y="0%" width="100%" height="100%">
  <feColorMatrix type="matrix" in="SourceGraphic" values="0 0 0 0 1 0 0 0 0 1 0 0 0 0 1 0 0 0 1 0"/>
</filter>
<mask id="mask0">
  <g filter="url(#alpha)">
<rect x="0" y="0" width="429" height="384" style="fill:rgb(0%,0%,0%);fill-opacity:0.0392157;stroke:none;"/>
  </g>
</mask>
<clipPath id="clip1">
  <rect x="0" y="0" width="429" height="384"/>
</clipPath>
<g id="surface5" clip-path="url(#clip1)">
<path style=" stroke:none;fill-rule:nonzero;fill:rgb(14.901961%,41.568627%,98.431373%);fill-opacity:1;" d="M 216.253906 5.375 L 213.949219 6.792969 L 213.949219 351.253906 C 214.714844 351.796875 215.480469 352.335938 216.253906 352.875 C 350.945312 259.515625 350.945312 88.359375 350.945312 88.359375 Z M 216.253906 5.375 "/>
</g>
<mask id="mask1">
  <g filter="url(#alpha)">
<rect x="0" y="0" width="429" height="384" style="fill:rgb(0%,0%,0%);fill-opacity:0.701961;stroke:none;"/>
  </g>
</mask>
<linearGradient id="linear0" gradientUnits="userSpaceOnUse" x1="344.9209" y1="369.39721" x2="505.39917" y2="369.39721" gradientTransform="matrix(0.499418,0,0,0.5,0,0)">
<stop offset="0" style="stop-color:rgb(50.196078%,50.196078%,50.196078%);stop-opacity:0.25098;"/>
<stop offset="0.53514" style="stop-color:rgb(50.196078%,50.196078%,50.196078%);stop-opacity:0.121569;"/>
<stop offset="1" style="stop-color:rgb(50.196078%,50.196078%,50.196078%);stop-opacity:0.101961;"/>
</linearGradient>
<clipPath id="clip2">
  <rect x="0" y="0" width="429" height="384"/>
</clipPath>
<g id="surface8" clip-path="url(#clip2)">
<path style=" stroke:none;fill-rule:nonzero;fill:url(#linear0);" d="M 182.839844 173.535156 L 208.230469 196.835938 L 239.710938 151.375 L 252.40625 161.96875 L 208.230469 218.023438 L 172.257812 177.769531 Z M 182.839844 173.535156 "/>
</g>
<mask id="mask2">
  <g filter="url(#alpha)">
<rect x="0" y="0" width="429" height="384" style="fill:rgb(0%,0%,0%);fill-opacity:0.501961;stroke:none;"/>
  </g>
</mask>
<clipPath id="clip3">
  <rect x="0" y="0" width="429" height="384"/>
</clipPath>
<g id="surface11" clip-path="url(#clip3)">
<path style=" stroke:none;fill-rule:nonzero;fill:rgb(30.196078%,54.117647%,94.117647%);fill-opacity:1;" d="M 82.546875 23.976562 C 81.695312 23.605469 81.253906 22.652344 81.527344 21.757812 C 81.546875 21.691406 81.5625 21.625 81.566406 21.554688 C 81.589844 21.148438 81.347656 20.773438 80.964844 20.632812 C 80.585938 20.492188 80.15625 20.617188 79.914062 20.941406 C 79.871094 21 79.835938 21.058594 79.8125 21.125 C 79.4375 21.980469 78.484375 22.421875 77.59375 22.148438 C 77.527344 22.125 77.457031 22.113281 77.390625 22.109375 C 76.984375 22.082031 76.609375 22.328125 76.46875 22.707031 C 76.328125 23.089844 76.457031 23.519531 76.78125 23.761719 C 76.835938 23.804688 76.894531 23.839844 76.960938 23.863281 C 77.816406 24.238281 78.253906 25.191406 77.984375 26.085938 C 77.960938 26.152344 77.949219 26.21875 77.941406 26.289062 C 77.917969 26.695312 78.160156 27.070312 78.542969 27.210938 C 78.921875 27.351562 79.351562 27.222656 79.597656 26.898438 C 79.636719 26.84375 79.671875 26.785156 79.699219 26.71875 C 80.070312 25.863281 81.023438 25.421875 81.914062 25.695312 C 81.980469 25.714844 82.050781 25.730469 82.121094 25.734375 C 82.523438 25.761719 82.898438 25.515625 83.039062 25.132812 C 83.179688 24.753906 83.054688 24.324219 82.730469 24.082031 C 82.671875 24.039062 82.613281 24.003906 82.546875 23.976562 Z M 82.546875 23.976562 "/>
</g>
<mask id="mask3">
  <g filter="url(#alpha)">
<rect x="0" y="0" width="429" height="384" style="fill:rgb(0%,0%,0%);fill-opacity:0.501961;stroke:none;"/>
  </g>
</mask>
<clipPath id="clip4">
  <rect x="0" y="0" width="429" height="384"/>
</clipPath>
<g id="surface14" clip-path="url(#clip4)">
<path style=" stroke:none;fill-rule:nonzero;fill:rgb(30.196078%,54.117647%,94.117647%);fill-opacity:1;" d="M 9.632812 186.476562 C 8.777344 186.105469 8.339844 185.152344 8.609375 184.257812 C 8.632812 184.191406 8.644531 184.125 8.652344 184.054688 C 8.675781 183.648438 8.433594 183.273438 8.050781 183.132812 C 7.671875 182.992188 7.242188 183.117188 6.996094 183.441406 C 6.957031 183.5 6.921875 183.558594 6.894531 183.625 C 6.523438 184.480469 5.570312 184.921875 4.679688 184.648438 C 4.613281 184.625 4.542969 184.613281 4.472656 184.609375 C 4.070312 184.582031 3.695312 184.828125 3.554688 185.207031 C 3.414062 185.589844 3.539062 186.019531 3.863281 186.261719 C 3.921875 186.304688 3.980469 186.339844 4.046875 186.363281 C 4.898438 186.738281 5.339844 187.691406 5.066406 188.585938 C 5.046875 188.652344 5.03125 188.71875 5.027344 188.789062 C 5.003906 189.195312 5.246094 189.570312 5.628906 189.710938 C 6.007812 189.851562 6.4375 189.722656 6.679688 189.398438 C 6.722656 189.34375 6.757812 189.285156 6.78125 189.21875 C 7.15625 188.363281 8.109375 187.921875 9 188.195312 C 9.066406 188.214844 9.136719 188.230469 9.203125 188.234375 C 9.609375 188.261719 9.984375 188.015625 10.125 187.632812 C 10.265625 187.253906 10.136719 186.824219 9.8125 186.582031 C 9.757812 186.539062 9.699219 186.503906 9.632812 186.476562 Z M 9.632812 186.476562 "/>
</g>
<mask id="mask4">
  <g filter="url(#alpha)">
<rect x="0" y="0" width="429" height="384" style="fill:rgb(0%,0%,0%);fill-opacity:0.501961;stroke:none;"/>
  </g>
</mask>
<clipPath id="clip5">
  <rect x="0" y="0" width="429" height="384"/>
</clipPath>
<g id="surface17" clip-path="url(#clip5)">
<path style=" stroke:none;fill-rule:nonzero;fill:rgb(96.078431%,37.254902%,26.666667%);fill-opacity:1;" d="M 376.761719 127 C 376.761719 128.65625 375.417969 130 373.765625 130 C 372.109375 130 370.765625 128.65625 370.765625 127 C 370.765625 125.34375 372.109375 124 373.765625 124 C 375.417969 124 376.761719 125.34375 376.761719 127 Z M 376.761719 127 "/>
</g>
<mask id="mask5">
  <g filter="url(#alpha)">
<rect x="0" y="0" width="429" height="384" style="fill:rgb(0%,0%,0%);fill-opacity:0.501961;stroke:none;"/>
  </g>
</mask>
<clipPath id="clip6">
  <rect x="0" y="0" width="429" height="384"/>
</clipPath>
<g id="surface20" clip-path="url(#clip6)">
<path style=" stroke:none;fill-rule:nonzero;fill:rgb(96.078431%,37.254902%,26.666667%);fill-opacity:1;" d="M 63.625 341.5 C 63.625 343.15625 62.285156 344.5 60.628906 344.5 C 58.972656 344.5 57.632812 343.15625 57.632812 341.5 C 57.632812 339.84375 58.972656 338.5 60.628906 338.5 C 62.285156 338.5 63.625 339.84375 63.625 341.5 Z M 63.625 341.5 "/>
</g>
<mask id="mask6">
  <g filter="url(#alpha)">
<rect x="0" y="0" width="429" height="384" style="fill:rgb(0%,0%,0%);fill-opacity:0.501961;stroke:none;"/>
  </g>
</mask>
<clipPath id="clip7">
  <rect x="0" y="0" width="429" height="384"/>
</clipPath>
<g id="surface23" clip-path="url(#clip7)">
<path style=" stroke:none;fill-rule:nonzero;fill:rgb(96.078431%,37.254902%,26.666667%);fill-opacity:1;" d="M 427.699219 242.5 C 427.699219 244.15625 426.359375 245.5 424.703125 245.5 C 423.050781 245.5 421.707031 244.15625 421.707031 242.5 C 421.707031 240.84375 423.050781 239.5 424.703125 239.5 C 426.359375 239.5 427.699219 240.84375 427.699219 242.5 Z M 427.699219 242.5 "/>
</g>
<mask id="mask7">
  <g filter="url(#alpha)">
<rect x="0" y="0" width="429" height="384" style="fill:rgb(0%,0%,0%);fill-opacity:0.501961;stroke:none;"/>
  </g>
</mask>
<clipPath id="clip8">
  <rect x="0" y="0" width="429" height="384"/>
</clipPath>
<g id="surface26" clip-path="url(#clip8)">
<path style=" stroke:none;fill-rule:nonzero;fill:rgb(30.196078%,54.117647%,94.117647%);fill-opacity:1;" d="M 351.734375 38.476562 C 350.878906 38.105469 350.441406 37.152344 350.710938 36.257812 C 350.734375 36.191406 350.746094 36.125 350.753906 36.054688 C 350.777344 35.648438 350.53125 35.273438 350.152344 35.132812 C 349.769531 34.992188 349.34375 35.117188 349.097656 35.441406 C 349.058594 35.5 349.023438 35.558594 348.996094 35.625 C 348.625 36.480469 347.671875 36.921875 346.777344 36.648438 C 346.714844 36.625 346.644531 36.613281 346.574219 36.609375 C 346.171875 36.582031 345.796875 36.828125 345.65625 37.207031 C 345.515625 37.589844 345.640625 38.019531 345.964844 38.261719 C 346.023438 38.304688 346.082031 38.339844 346.144531 38.363281 C 347 38.738281 347.441406 39.691406 347.167969 40.585938 C 347.148438 40.652344 347.132812 40.71875 347.128906 40.789062 C 347.105469 41.195312 347.347656 41.570312 347.730469 41.710938 C 348.109375 41.851562 348.539062 41.722656 348.78125 41.398438 C 348.824219 41.34375 348.859375 41.285156 348.882812 41.21875 C 349.257812 40.363281 350.210938 39.921875 351.101562 40.195312 C 351.167969 40.214844 351.238281 40.230469 351.304688 40.234375 C 351.710938 40.261719 352.085938 40.015625 352.226562 39.632812 C 352.367188 39.253906 352.238281 38.824219 351.914062 38.582031 C 351.859375 38.539062 351.800781 38.503906 351.734375 38.476562 Z M 351.734375 38.476562 "/>
</g>
<mask id="mask8">
  <g filter="url(#alpha)">
<rect x="0" y="0" width="429" height="384" style="fill:rgb(0%,0%,0%);fill-opacity:0.501961;stroke:none;"/>
  </g>
</mask>
<clipPath id="clip9">
  <rect x="0" y="0" width="429" height="384"/>
</clipPath>
<g id="surface29" clip-path="url(#clip9)">
<path style=" stroke:none;fill-rule:nonzero;fill:rgb(30.196078%,54.117647%,94.117647%);fill-opacity:1;" d="M 401.675781 352.476562 C 400.820312 352.105469 400.382812 351.152344 400.652344 350.257812 C 400.675781 350.191406 400.6875 350.125 400.695312 350.054688 C 400.71875 349.648438 400.476562 349.273438 400.09375 349.132812 C 399.714844 348.992188 399.285156 349.117188 399.039062 349.441406 C 399 349.5 398.964844 349.558594 398.9375 349.625 C 398.566406 350.480469 397.613281 350.921875 396.722656 350.648438 C 396.65625 350.625 396.585938 350.613281 396.515625 350.609375 C 396.113281 350.582031 395.738281 350.828125 395.597656 351.207031 C 395.457031 351.589844 395.582031 352.019531 395.90625 352.261719 C 395.964844 352.304688 396.023438 352.339844 396.089844 352.363281 C 396.941406 352.738281 397.382812 353.691406 397.109375 354.585938 C 397.089844 354.652344 397.074219 354.71875 397.070312 354.789062 C 397.046875 355.195312 397.289062 355.570312 397.671875 355.710938 C 398.050781 355.851562 398.480469 355.722656 398.722656 355.398438 C 398.765625 355.34375 398.800781 355.285156 398.824219 355.21875 C 399.199219 354.363281 400.152344 353.921875 401.042969 354.195312 C 401.109375 354.214844 401.179688 354.230469 401.246094 354.234375 C 401.652344 354.261719 402.027344 354.015625 402.167969 353.632812 C 402.308594 353.253906 402.179688 352.824219 401.855469 352.582031 C 401.800781 352.539062 401.742188 352.503906 401.675781 352.476562 Z M 401.675781 352.476562 "/>
</g>
<mask id="mask9">
  <g filter="url(#alpha)">
<rect x="0" y="0" width="429" height="384" style="fill:rgb(0%,0%,0%);fill-opacity:0.501961;stroke:none;"/>
  </g>
</mask>
<clipPath id="clip10">
  <rect x="0" y="0" width="429" height="384"/>
</clipPath>
<g id="surface32" clip-path="url(#clip10)">
<path style=" stroke:none;fill-rule:nonzero;fill:rgb(30.196078%,54.117647%,94.117647%);fill-opacity:1;" d="M 6.136719 91.476562 C 5.28125 91.105469 4.84375 90.152344 5.113281 89.257812 C 5.136719 89.191406 5.148438 89.125 5.15625 89.054688 C 5.179688 88.648438 4.9375 88.273438 4.554688 88.132812 C 4.175781 87.992188 3.746094 88.117188 3.5 88.441406 C 3.460938 88.5 3.425781 88.558594 3.398438 88.625 C 3.027344 89.480469 2.074219 89.921875 1.183594 89.648438 C 1.117188 89.625 1.046875 89.613281 0.976562 89.609375 C 0.574219 89.582031 0.199219 89.828125 0.0585938 90.207031 C -0.0820312 90.589844 0.0429688 91.019531 0.367188 91.261719 C 0.425781 91.304688 0.484375 91.339844 0.550781 91.363281 C 1.402344 91.738281 1.84375 92.691406 1.570312 93.585938 C 1.550781 93.652344 1.539062 93.71875 1.53125 93.789062 C 1.507812 94.195312 1.75 94.570312 2.132812 94.710938 C 2.511719 94.851562 2.941406 94.722656 3.183594 94.398438 C 3.226562 94.34375 3.261719 94.285156 3.285156 94.21875 C 3.660156 93.363281 4.613281 92.921875 5.503906 93.195312 C 5.570312 93.214844 5.640625 93.230469 5.707031 93.234375 C 6.113281 93.261719 6.488281 93.015625 6.628906 92.632812 C 6.769531 92.253906 6.640625 91.824219 6.320312 91.582031 C 6.261719 91.539062 6.203125 91.503906 6.136719 91.476562 Z M 6.136719 91.476562 "/>
</g>
<mask id="mask10">
  <g filter="url(#alpha)">
<rect x="0" y="0" width="429" height="384" style="fill:rgb(0%,0%,0%);fill-opacity:0.501961;stroke:none;"/>
  </g>
</mask>
<clipPath id="clip11">
  <rect x="0" y="0" width="429" height="384"/>
</clipPath>
<g id="surface35" clip-path="url(#clip11)">
<path style=" stroke:none;fill-rule:nonzero;fill:rgb(27.843137%,90.196078%,69.411765%);fill-opacity:1;" d="M 42.648438 142 C 42.648438 143.65625 41.308594 145 39.652344 145 C 38 145 36.65625 143.65625 36.65625 142 C 36.65625 140.34375 38 139 39.652344 139 C 41.308594 139 42.648438 140.34375 42.648438 142 Z M 42.648438 142 "/>
</g>
<mask id="mask11">
  <g filter="url(#alpha)">
<rect x="0" y="0" width="429" height="384" style="fill:rgb(0%,0%,0%);fill-opacity:0.501961;stroke:none;"/>
  </g>
</mask>
<clipPath id="clip12">
  <rect x="0" y="0" width="429" height="384"/>
</clipPath>
<g id="surface38" clip-path="url(#clip12)">
<path style=" stroke:none;fill-rule:nonzero;fill:rgb(27.843137%,90.196078%,69.411765%);fill-opacity:1;" d="M 429.199219 166 C 429.199219 167.65625 427.859375 169 426.203125 169 C 424.546875 169 423.207031 167.65625 423.207031 166 C 423.207031 164.34375 424.546875 163 426.203125 163 C 427.859375 163 429.199219 164.34375 429.199219 166 Z M 429.199219 166 "/>
</g>
<mask id="mask12">
  <g filter="url(#alpha)">
<rect x="0" y="0" width="429" height="384" style="fill:rgb(0%,0%,0%);fill-opacity:0.501961;stroke:none;"/>
  </g>
</mask>
<clipPath id="clip13">
  <rect x="0" y="0" width="429" height="384"/>
</clipPath>
<g id="surface41" clip-path="url(#clip13)">
<path style=" stroke:none;fill-rule:nonzero;fill:rgb(27.843137%,90.196078%,69.411765%);fill-opacity:1;" d="M 291.359375 0 L 292.859375 0 L 292.859375 8.5 L 291.359375 8.5 Z M 291.359375 0 "/>
<path style=" stroke:none;fill-rule:nonzero;fill:rgb(27.843137%,90.196078%,69.411765%);fill-opacity:1;" d="M 296.355469 3.5 L 296.355469 5 L 287.863281 5 L 287.863281 3.5 Z M 296.355469 3.5 "/>
</g>
<mask id="mask13">
  <g filter="url(#alpha)">
<rect x="0" y="0" width="429" height="384" style="fill:rgb(0%,0%,0%);fill-opacity:0.501961;stroke:none;"/>
  </g>
</mask>
<clipPath id="clip14">
  <rect x="0" y="0" width="429" height="384"/>
</clipPath>
<g id="surface44" clip-path="url(#clip14)">
<path style=" stroke:none;fill-rule:nonzero;fill:rgb(27.843137%,90.196078%,69.411765%);fill-opacity:1;" d="M 296.855469 333 L 298.351562 333 L 298.351562 341.5 L 296.855469 341.5 Z M 296.855469 333 "/>
<path style=" stroke:none;fill-rule:nonzero;fill:rgb(27.843137%,90.196078%,69.411765%);fill-opacity:1;" d="M 301.847656 336.5 L 301.847656 338 L 293.359375 338 L 293.359375 336.5 Z M 301.847656 336.5 "/>
</g>
<mask id="mask14">
  <g filter="url(#alpha)">
<rect x="0" y="0" width="429" height="384" style="fill:rgb(0%,0%,0%);fill-opacity:0.501961;stroke:none;"/>
  </g>
</mask>
<clipPath id="clip15">
  <rect x="0" y="0" width="429" height="384"/>
</clipPath>
<g id="surface47" clip-path="url(#clip15)">
<path style=" stroke:none;fill-rule:nonzero;fill:rgb(27.843137%,90.196078%,69.411765%);fill-opacity:1;" d="M 13.183594 351 L 14.683594 351 L 14.683594 359.5 L 13.183594 359.5 Z M 13.183594 351 "/>
<path style=" stroke:none;fill-rule:nonzero;fill:rgb(27.843137%,90.196078%,69.411765%);fill-opacity:1;" d="M 18.179688 354.5 L 18.179688 356 L 9.6875 356 L 9.6875 354.5 Z M 18.179688 354.5 "/>
</g>
<mask id="mask15">
  <g filter="url(#alpha)">
<rect x="0" y="0" width="429" height="384" style="fill:rgb(0%,0%,0%);fill-opacity:0.501961;stroke:none;"/>
  </g>
</mask>
<clipPath id="clip16">
  <rect x="0" y="0" width="429" height="384"/>
</clipPath>
<g id="surface50" clip-path="url(#clip16)">
<path style=" stroke:none;fill-rule:nonzero;fill:rgb(27.843137%,90.196078%,69.411765%);fill-opacity:1;" d="M 354.285156 198 L 355.785156 198 L 355.785156 206.5 L 354.285156 206.5 Z M 354.285156 198 "/>
<path style=" stroke:none;fill-rule:nonzero;fill:rgb(27.843137%,90.196078%,69.411765%);fill-opacity:1;" d="M 359.28125 201.5 L 359.28125 203 L 350.789062 203 L 350.789062 201.5 Z M 359.28125 201.5 "/>
</g>
<mask id="mask16">
  <g filter="url(#alpha)">
<rect x="0" y="0" width="429" height="384" style="fill:rgb(0%,0%,0%);fill-opacity:0.501961;stroke:none;"/>
  </g>
</mask>
<clipPath id="clip17">
  <rect x="0" y="0" width="429" height="384"/>
</clipPath>
<g id="surface53" clip-path="url(#clip17)">
<path style=" stroke:none;fill-rule:nonzero;fill:rgb(27.843137%,90.196078%,69.411765%);fill-opacity:1;" d="M 397.339844 61.507812 L 400.558594 64.460938 L 405.117188 57.75 L 406.726562 59.09375 L 400.558594 67.148438 L 396 62.046875 Z M 397.339844 61.507812 "/>
</g>
<mask id="mask17">
  <g filter="url(#alpha)">
<rect x="0" y="0" width="429" height="384" style="fill:rgb(0%,0%,0%);fill-opacity:0.101961;stroke:none;"/>
  </g>
</mask>
<clipPath id="clip18">
  <rect x="0" y="0" width="429" height="384"/>
</clipPath>
<g id="surface56" clip-path="url(#clip18)">
<path style=" stroke:none;fill-rule:nonzero;fill:rgb(0%,0%,0%);fill-opacity:1;" d="M 341.765625 164.734375 C 338.570312 170.566406 330.527344 178.230469 326.429688 186.792969 C 325.359375 182.929688 324.054688 178.933594 324.054688 178.933594 C 324.054688 178.933594 319.042969 152.101562 333.863281 145.164062 C 336.316406 144.925781 338.773438 145.613281 340.75 147.09375 C 342.859375 154.234375 343.859375 160.914062 341.765625 164.734375 Z M 341.765625 164.734375 "/>
</g>
<mask id="mask18">
  <g filter="url(#alpha)">
<rect x="0" y="0" width="429" height="384" style="fill:rgb(0%,0%,0%);fill-opacity:0.101961;stroke:none;"/>
  </g>
</mask>
<clipPath id="clip19">
  <rect x="0" y="0" width="429" height="384"/>
</clipPath>
<g id="surface59" clip-path="url(#clip19)">
<path style=" stroke:none;fill-rule:nonzero;fill:rgb(0%,0%,0%);fill-opacity:1;" d="M 323.992188 197.699219 C 324.375 205.042969 327.078125 213.542969 328.046875 219.71875 C 322.691406 224.792969 317.601562 229.269531 315.683594 229.34375 C 311.71875 229.496094 305.34375 228.949219 302.996094 229.835938 C 300.648438 230.722656 299.273438 215.671875 299.273438 215.671875 C 299.273438 215.671875 300.675781 210.847656 306.925781 208.21875 C 311.144531 206.441406 319.230469 201.621094 323.992188 197.699219 Z M 323.992188 197.699219 "/>
</g>
</defs>
<g id="surface1">
<path style=" stroke:none;fill-rule:nonzero;fill:rgb(24.705882%,23.921569%,33.72549%);fill-opacity:1;" d="M 215.449219 5.375 L 80.753906 88.359375 C 80.753906 88.359375 80.753906 259.515625 215.449219 352.875 C 350.140625 259.515625 350.140625 88.359375 350.140625 88.359375 Z M 215.449219 5.375 "/>
<use xlink:href="#surface5" mask="url(#mask0)"/>
<use xlink:href="#surface8" mask="url(#mask1)"/>
<path style=" stroke:none;fill-rule:nonzero;fill:rgb(22.745098%,82.352941%,62.352941%);fill-opacity:1;" d="M 188.832031 174.933594 L 209.429688 193.835938 L 238.609375 150.875 L 248.910156 159.46875 L 209.429688 211.023438 L 180.25 178.371094 Z M 188.832031 174.933594 "/>
<use xlink:href="#surface11" mask="url(#mask2)"/>
<use xlink:href="#surface14" mask="url(#mask3)"/>
<use xlink:href="#surface17" mask="url(#mask4)"/>
<use xlink:href="#surface20" mask="url(#mask5)"/>
<use xlink:href="#surface23" mask="url(#mask6)"/>
<use xlink:href="#surface26" mask="url(#mask7)"/>
<use xlink:href="#surface29" mask="url(#mask8)"/>
<use xlink:href="#surface32" mask="url(#mask9)"/>
<use xlink:href="#surface35" mask="url(#mask10)"/>
<use xlink:href="#surface38" mask="url(#mask11)"/>
<use xlink:href="#surface41" mask="url(#mask12)"/>
<use xlink:href="#surface44" mask="url(#mask13)"/>
<use xlink:href="#surface47" mask="url(#mask14)"/>
<use xlink:href="#surface50" mask="url(#mask15)"/>
<use xlink:href="#surface53" mask="url(#mask16)"/>
<path style=" stroke:none;fill-rule:nonzero;fill:rgb(14.901961%,41.568627%,98.431373%);fill-opacity:1;" d="M 294.378906 120.066406 L 305.480469 119.636719 L 306.03125 133.921875 L 294.933594 134.355469 Z M 294.378906 120.066406 "/>
<path style=" stroke:none;fill-rule:nonzero;fill:rgb(100%,72.54902%,72.54902%);fill-opacity:1;" d="M 255.40625 169.675781 C 255.40625 169.675781 240.035156 162.324219 240.28125 168.671875 C 240.527344 175.023438 255.777344 179.199219 255.777344 179.199219 Z M 255.40625 169.675781 "/>
<path style=" stroke:none;fill-rule:nonzero;fill:rgb(14.901961%,41.568627%,98.431373%);fill-opacity:1;" d="M 263.839844 223.40625 C 263.839844 223.40625 256.589844 241.175781 253.910156 254 C 251.230469 266.824219 247.148438 284.472656 252.398438 296.988281 C 257.648438 309.503906 272.570312 346.285156 272.722656 350.253906 C 272.878906 354.222656 271.445312 358.253906 274.617188 358.132812 C 277.789062 358.007812 295.046875 352.566406 295.746094 350.15625 C 296.449219 347.742188 289.859375 341.640625 289.859375 341.640625 L 273.589844 290.597656 L 290.566406 257.347656 L 302.808594 306.953125 L 305.207031 368.867188 C 305.207031 368.867188 316.976562 365.230469 318.683594 368.34375 C 318.683594 368.34375 323.957031 360.984375 324.628906 357.78125 C 325.296875 354.574219 322.136719 293.484375 322.136719 293.484375 C 322.136719 293.484375 332.941406 223.902344 324.21875 224.242188 C 315.5 224.578125 281.339844 203.648438 263.839844 223.40625 Z M 263.839844 223.40625 "/>
<path style=" stroke:none;fill-rule:nonzero;fill:rgb(34.117647%,35.294118%,53.72549%);fill-opacity:1;" d="M 274.496094 354.957031 C 274.496094 354.957031 266.449219 372.757812 265.6875 373.582031 C 264.925781 374.40625 259.683594 382.558594 263.648438 382.40625 C 267.609375 382.253906 276.972656 377.914062 283.859375 371.285156 C 290.75 364.660156 299.835938 353.175781 299.011719 352.414062 C 298.1875 351.652344 292.546875 349.484375 292.546875 349.484375 Z M 274.496094 354.957031 "/>
<path style=" stroke:none;fill-rule:nonzero;fill:rgb(34.117647%,35.294118%,53.72549%);fill-opacity:1;" d="M 306.636719 364.835938 C 306.636719 364.835938 306.152344 372.804688 304.691406 376.042969 C 303.226562 379.28125 303.414062 384.042969 307.375 383.886719 C 311.339844 383.734375 321.585938 381.746094 321.585938 381.746094 C 321.585938 381.746094 322.195312 376.953125 321.371094 376.191406 C 320.546875 375.425781 317.039062 366.820312 318.53125 364.375 C 320.023438 361.933594 306.636719 364.835938 306.636719 364.835938 Z M 306.636719 364.835938 "/>
<path style=" stroke:none;fill-rule:nonzero;fill:rgb(100%,72.54902%,72.54902%);fill-opacity:1;" d="M 312.503906 106.246094 C 312.503906 106.246094 320.953125 119.433594 324.25 122.484375 C 327.542969 125.535156 318.273438 132.257812 318.273438 132.257812 L 301.6875 134.488281 C 301.6875 134.488281 301.894531 119.378906 301.042969 117.820312 C 300.1875 116.265625 312.503906 106.246094 312.503906 106.246094 Z M 312.503906 106.246094 "/>
<path style=" stroke:none;fill-rule:nonzero;fill:rgb(14.901961%,41.568627%,98.431373%);fill-opacity:1;" d="M 298.085938 123.5 C 298.085938 123.5 301.503906 129.726562 304.671875 129.605469 C 307.84375 129.480469 324.25 122.484375 324.949219 120.074219 C 325.648438 117.660156 330.382812 137.351562 330.382812 137.351562 L 290.242188 208.070312 L 280.453125 201.296875 L 285.195312 159.773438 L 289.09375 137.363281 Z M 298.085938 123.5 "/>
<path style=" stroke:none;fill-rule:nonzero;fill:rgb(34.117647%,35.294118%,53.72549%);fill-opacity:1;" d="M 326.429688 186.792969 C 324.828125 190.144531 323.828125 193.640625 323.96875 197.222656 C 323.972656 197.382812 323.980469 197.539062 323.992188 197.699219 C 324.375 205.042969 327.078125 213.542969 328.046875 219.71875 C 328.75 224.152344 328.550781 227.386719 325.960938 228.148438 C 319.679688 229.980469 326.875 231.292969 302.574219 239.390625 C 278.273438 247.488281 274.03125 240.5 273.96875 238.910156 C 273.910156 237.324219 277.410156 225.261719 276.585938 224.5 C 275.765625 223.738281 265.0625 234.488281 261.832031 233.023438 C 258.597656 231.558594 261.460938 223.496094 261.460938 223.496094 C 261.460938 223.496094 268.746094 206.519531 268.589844 202.550781 C 268.4375 198.582031 279.621094 179.863281 279.621094 179.863281 L 287.230469 130.28125 C 287.230469 130.28125 290.15625 123.808594 294.089844 122.859375 C 298.023438 121.914062 301.285156 124.171875 301.285156 124.171875 L 294.703125 138.734375 L 287.761719 164.445312 L 288.921875 173.9375 C 288.921875 173.9375 296.996094 156.929688 302.300781 150.367188 C 307.605469 143.800781 318.914062 128.257812 318.914062 128.257812 C 318.914062 128.257812 321.554688 119.335938 319.5625 116.671875 C 317.566406 114 327.875 113.597656 332.269531 124.558594 C 334.597656 130.367188 338.378906 139.027344 340.75 147.09375 C 342.859375 154.234375 343.855469 160.914062 341.765625 164.734375 C 338.570312 170.566406 330.527344 178.230469 326.429688 186.792969 Z M 326.429688 186.792969 "/>
<use xlink:href="#surface56" mask="url(#mask17)"/>
<path style=" stroke:none;fill-rule:nonzero;fill:rgb(34.117647%,35.294118%,53.72549%);fill-opacity:1;" d="M 282.941406 163.042969 L 270.378906 166.710938 L 252.9375 167.386719 L 251.140625 182.558594 L 279.808594 184.628906 C 279.808594 184.628906 286.96875 164.476562 282.941406 163.042969 Z M 282.941406 163.042969 "/>
<path style=" stroke:none;fill-rule:nonzero;fill:rgb(100%,72.54902%,72.54902%);fill-opacity:1;" d="M 303.425781 214.0625 C 303.425781 214.0625 286.621094 216.851562 290.457031 221.917969 C 294.292969 226.980469 309.179688 221.65625 309.179688 221.65625 Z M 303.425781 214.0625 "/>
<use xlink:href="#surface59" mask="url(#mask18)"/>
<path style=" stroke:none;fill-rule:nonzero;fill:rgb(34.117647%,35.294118%,53.72549%);fill-opacity:1;" d="M 333.675781 140.402344 C 333.675781 140.402344 347.09375 138.292969 346.371094 160.578125 C 345.644531 182.867188 347.785156 197.09375 342.386719 201.277344 C 336.992188 205.460938 319.464844 224.425781 315.5 224.578125 C 311.535156 224.734375 305.160156 224.1875 302.8125 225.074219 C 300.464844 225.957031 299.089844 210.90625 299.089844 210.90625 C 299.089844 210.90625 300.488281 206.082031 306.738281 203.457031 C 312.992188 200.828125 327.714844 191.511719 327.59375 188.335938 C 327.46875 185.160156 323.867188 174.171875 323.867188 174.171875 C 323.867188 174.171875 318.859375 147.335938 333.675781 140.402344 Z M 333.675781 140.402344 "/>
<path style=" stroke:none;fill-rule:nonzero;fill:rgb(100%,72.54902%,72.54902%);fill-opacity:1;" d="M 318.128906 108.296875 C 318.128906 117.945312 310.3125 125.773438 300.671875 125.773438 C 291.03125 125.773438 283.214844 117.945312 283.214844 108.296875 C 283.214844 98.644531 291.03125 90.820312 300.671875 90.820312 C 310.3125 90.820312 318.128906 98.644531 318.128906 108.296875 Z M 318.128906 108.296875 "/>
<path style=" stroke:none;fill-rule:nonzero;fill:rgb(18.431373%,18.039216%,25.490196%);fill-opacity:1;" d="M 288.917969 83.246094 C 288.496094 83.609375 287.992188 83.863281 287.449219 83.984375 C 286.882812 84.085938 286.34375 83.710938 286.238281 83.144531 C 285.839844 83.972656 285.386719 84.855469 284.570312 85.28125 C 283.757812 85.707031 282.496094 85.351562 282.378906 84.4375 C 282.257812 85.128906 281.953125 85.777344 281.492188 86.308594 C 280.988281 86.792969 280.070312 86.914062 279.628906 86.371094 C 279.984375 88.324219 279.765625 90.335938 279.875 92.316406 C 279.988281 94.300781 280.515625 96.402344 282.011719 97.707031 C 284.195312 99.609375 287.476562 99.140625 290.347656 98.777344 C 290.78125 98.6875 291.234375 98.710938 291.652344 98.851562 C 292.730469 99.308594 292.679688 100.804688 292.695312 101.976562 C 292.875 106.214844 296.085938 109.703125 300.292969 110.226562 C 301.429688 110.402344 302.59375 110.117188 303.523438 109.433594 C 304.339844 108.742188 304.753906 107.617188 305.691406 107.097656 C 307.210938 106.25 309.050781 107.484375 310.164062 108.824219 C 311.273438 110.160156 312.367188 111.808594 314.089844 112.050781 C 316.363281 112.375 318.097656 110.054688 318.949219 107.914062 C 321.320312 101.863281 321.144531 95.105469 318.46875 89.179688 C 313.71875 78.808594 297.484375 77.171875 288.917969 83.246094 Z M 288.917969 83.246094 "/>
</g>
</svg>
