<?xml version="1.0" encoding="UTF-8"?>
<svg xmlns="http://www.w3.org/2000/svg" xmlns:xlink="http://www.w3.org/1999/xlink" width="485pt" height="398pt" viewBox="0 0 485 398" version="1.1">
<defs>
<filter id="alpha" filterUnits="objectBoundingBox" x="0%" y="0%" width="100%" height="100%">
  <feColorMatrix type="matrix" in="SourceGraphic" values="0 0 0 0 1 0 0 0 0 1 0 0 0 0 1 0 0 0 1 0"/>
</filter>
<mask id="mask0">
  <g filter="url(#alpha)">
<rect x="0" y="0" width="485" height="398" style="fill:rgb(0%,0%,0%);fill-opacity:0.301961;stroke:none;"/>
  </g>
</mask>
<clipPath id="clip1">
  <rect x="0" y="0" width="485" height="398"/>
</clipPath>
<g id="surface5" clip-path="url(#clip1)">
<path style=" stroke:none;fill-rule:nonzero;fill:rgb(80%,80%,80%);fill-opacity:1;" d="M 485 100 C 485 114.636719 473.136719 126.5 458.5 126.5 C 443.863281 126.5 432 114.636719 432 100 C 432 85.363281 443.863281 73.5 458.5 73.5 C 473.136719 73.5 485 85.363281 485 100 Z M 485 100 "/>
</g>
<mask id="mask1">
  <g filter="url(#alpha)">
<rect x="0" y="0" width="485" height="398" style="fill:rgb(0%,0%,0%);fill-opacity:0.301961;stroke:none;"/>
  </g>
</mask>
<clipPath id="clip2">
  <rect x="0" y="0" width="485" height="398"/>
</clipPath>
<g id="surface8" clip-path="url(#clip2)">
<path style=" stroke:none;fill-rule:nonzero;fill:rgb(80%,80%,80%);fill-opacity:1;" d="M 467.5 26.5 C 467.5 41.136719 455.636719 53 441 53 C 426.363281 53 414.5 41.136719 414.5 26.5 C 414.5 11.863281 426.363281 0 441 0 C 455.636719 0 467.5 11.863281 467.5 26.5 Z M 467.5 26.5 "/>
</g>
<mask id="mask2">
  <g filter="url(#alpha)">
<rect x="0" y="0" width="485" height="398" style="fill:rgb(0%,0%,0%);fill-opacity:0.301961;stroke:none;"/>
  </g>
</mask>
<clipPath id="clip3">
  <rect x="0" y="0" width="485" height="398"/>
</clipPath>
<g id="surface11" clip-path="url(#clip3)">
<path style=" stroke:none;fill-rule:nonzero;fill:rgb(80%,80%,80%);fill-opacity:1;" d="M 53 126.5 C 53 141.136719 41.136719 153 26.5 153 C 11.863281 153 0 141.136719 0 126.5 C 0 111.863281 11.863281 100 26.5 100 C 41.136719 100 53 111.863281 53 126.5 Z M 53 126.5 "/>
</g>
<mask id="mask3">
  <g filter="url(#alpha)">
<rect x="0" y="0" width="485" height="398" style="fill:rgb(0%,0%,0%);fill-opacity:0.301961;stroke:none;"/>
  </g>
</mask>
<clipPath id="clip4">
  <rect x="0" y="0" width="485" height="398"/>
</clipPath>
<g id="surface14" clip-path="url(#clip4)">
<path style=" stroke:none;fill-rule:nonzero;fill:rgb(80%,80%,80%);fill-opacity:1;" d="M 76.5 332.5 C 76.5 347.136719 64.636719 359 50 359 C 35.363281 359 23.5 347.136719 23.5 332.5 C 23.5 317.863281 35.363281 306 50 306 C 64.636719 306 76.5 317.863281 76.5 332.5 Z M 76.5 332.5 "/>
</g>
<mask id="mask4">
  <g filter="url(#alpha)">
<rect x="0" y="0" width="485" height="398" style="fill:rgb(0%,0%,0%);fill-opacity:0.301961;stroke:none;"/>
  </g>
</mask>
<clipPath id="clip5">
  <rect x="0" y="0" width="485" height="398"/>
</clipPath>
<g id="surface17" clip-path="url(#clip5)">
<path style=" stroke:none;fill-rule:nonzero;fill:rgb(80%,80%,80%);fill-opacity:1;" d="M 112.5 50 C 112.5 64.636719 100.636719 76.5 86 76.5 C 71.363281 76.5 59.5 64.636719 59.5 50 C 59.5 35.363281 71.363281 23.5 86 23.5 C 100.636719 23.5 112.5 35.363281 112.5 50 Z M 112.5 50 "/>
</g>
</defs>
<g id="surface1">
<use xlink:href="#surface5" mask="url(#mask0)"/>
<path style=" stroke:none;fill-rule:nonzero;fill:rgb(14.901961%,41.568627%,98.431373%);fill-opacity:1;" d="M 473.5 100 C 473.5 108.285156 466.785156 115 458.5 115 C 450.214844 115 443.5 108.285156 443.5 100 C 443.5 91.714844 450.214844 85 458.5 85 C 466.785156 85 473.5 91.714844 473.5 100 Z M 473.5 100 "/>
<use xlink:href="#surface8" mask="url(#mask1)"/>
<path style=" stroke:none;fill-rule:nonzero;fill:rgb(14.901961%,41.568627%,98.431373%);fill-opacity:1;" d="M 456 26.5 C 456 34.785156 449.285156 41.5 441 41.5 C 432.714844 41.5 426 34.785156 426 26.5 C 426 18.214844 432.714844 11.5 441 11.5 C 449.285156 11.5 456 18.214844 456 26.5 Z M 456 26.5 "/>
<use xlink:href="#surface11" mask="url(#mask2)"/>
<path style=" stroke:none;fill-rule:nonzero;fill:rgb(14.901961%,41.568627%,98.431373%);fill-opacity:1;" d="M 41.5 126.5 C 41.5 134.785156 34.785156 141.5 26.5 141.5 C 18.214844 141.5 11.5 134.785156 11.5 126.5 C 11.5 118.214844 18.214844 111.5 26.5 111.5 C 34.785156 111.5 41.5 118.214844 41.5 126.5 Z M 41.5 126.5 "/>
<use xlink:href="#surface14" mask="url(#mask3)"/>
<path style=" stroke:none;fill-rule:nonzero;fill:rgb(14.901961%,41.568627%,98.431373%);fill-opacity:1;" d="M 65 332.5 C 65 340.785156 58.285156 347.5 50 347.5 C 41.714844 347.5 35 340.785156 35 332.5 C 35 324.214844 41.714844 317.5 50 317.5 C 58.285156 317.5 65 324.214844 65 332.5 Z M 65 332.5 "/>
<use xlink:href="#surface17" mask="url(#mask4)"/>
<path style=" stroke:none;fill-rule:nonzero;fill:rgb(14.901961%,41.568627%,98.431373%);fill-opacity:1;" d="M 101 50 C 101 58.285156 94.285156 65 86 65 C 77.714844 65 71 58.285156 71 50 C 71 41.714844 77.714844 35 86 35 C 94.285156 35 101 41.714844 101 50 Z M 101 50 "/>
<path style=" stroke:none;fill-rule:nonzero;fill:rgb(24.705882%,23.921569%,33.72549%);fill-opacity:1;" d="M 434 215.5 C 434 304.671875 370.046875 378.90625 285.5 394.835938 C 285.171875 394.898438 284.835938 394.960938 284.5 395.019531 C 279.246094 395.984375 273.910156 396.714844 268.5 397.214844 C 268.164062 397.25 267.835938 397.28125 267.5 397.304688 C 262.230469 397.765625 256.898438 397.996094 251.5 398 C 251.164062 398 250.835938 398 250.5 397.996094 C 245.109375 397.96875 239.777344 397.710938 234.5 397.214844 C 234.164062 397.191406 233.835938 397.15625 233.5 397.121094 C 228.09375 396.59375 222.761719 395.832031 217.5 394.835938 C 217.164062 394.773438 216.828125 394.710938 216.5 394.644531 C 132.449219 378.320312 69 304.320312 69 215.5 C 69 114.710938 150.710938 33 251.5 33 C 352.289062 33 434 114.710938 434 215.5 Z M 434 215.5 "/>
<path style=" stroke:none;fill-rule:nonzero;fill:rgb(14.901961%,41.568627%,98.431373%);fill-opacity:1;" d="M 285 137.25 L 286 137.25 L 286 285.5 L 285 285.5 Z M 285 137.25 "/>
<path style=" stroke:none;fill-rule:nonzero;fill:rgb(14.901961%,41.568627%,98.431373%);fill-opacity:1;" d="M 285 73.699219 L 286 73.699219 L 286 117.4375 L 285 117.4375 Z M 285 73.699219 "/>
<path style=" stroke:none;fill-rule:nonzero;fill:rgb(14.901961%,41.568627%,98.431373%);fill-opacity:1;" d="M 216.5 69.136719 L 217.5 69.136719 L 217.5 285.5 L 216.5 285.5 Z M 216.5 69.136719 "/>
<path style=" stroke:none;fill-rule:nonzero;fill:rgb(14.901961%,41.568627%,98.431373%);fill-opacity:1;" d="M 233.5 50 L 234.5 50 L 234.5 98.726562 L 233.5 98.726562 Z M 233.5 50 "/>
<path style=" stroke:none;fill-rule:nonzero;fill:rgb(14.901961%,41.568627%,98.431373%);fill-opacity:1;" d="M 233.5 122 L 234.5 122 L 234.5 270.320312 L 233.5 270.320312 Z M 233.5 122 "/>
<path style=" stroke:none;fill-rule:nonzero;fill:rgb(14.901961%,41.568627%,98.431373%);fill-opacity:1;" d="M 234.5 293.375 L 234.5 397.214844 C 234.164062 397.191406 233.835938 397.15625 233.5 397.121094 L 233.5 293.375 Z M 234.5 293.375 "/>
<path style=" stroke:none;fill-rule:nonzero;fill:rgb(14.901961%,41.568627%,98.431373%);fill-opacity:1;" d="M 250.5 34 L 251.5 34 L 251.5 171.671875 L 250.5 171.671875 Z M 250.5 34 "/>
<path style=" stroke:none;fill-rule:nonzero;fill:rgb(14.901961%,41.568627%,98.431373%);fill-opacity:1;" d="M 251.5 190.761719 L 251.5 398 C 251.164062 398 250.835938 398 250.5 397.996094 L 250.5 190.761719 Z M 251.5 190.761719 "/>
<path style=" stroke:none;fill-rule:nonzero;fill:rgb(14.901961%,41.568627%,98.431373%);fill-opacity:1;" d="M 267.5 50 L 268.5 50 L 268.5 241 L 267.5 241 Z M 267.5 50 "/>
<path style=" stroke:none;fill-rule:nonzero;fill:rgb(14.901961%,41.568627%,98.431373%);fill-opacity:1;" d="M 267.5 261.5 L 268.5 261.5 L 268.5 368.585938 L 267.5 368.585938 Z M 267.5 261.5 "/>
<path style=" stroke:none;fill-rule:nonzero;fill:rgb(14.901961%,41.568627%,98.431373%);fill-opacity:1;" d="M 268.5 391.265625 L 268.5 397.214844 C 268.164062 397.25 267.835938 397.28125 267.5 397.304688 L 267.5 391.265625 Z M 268.5 391.265625 "/>
<path style=" stroke:none;fill-rule:nonzero;fill:rgb(14.901961%,41.568627%,98.431373%);fill-opacity:1;" d="M 285.5 311.5 L 285.5 394.835938 C 285.171875 394.898438 284.835938 394.960938 284.5 395.019531 L 284.5 311.5 Z M 285.5 311.5 "/>
<path style=" stroke:none;fill-rule:nonzero;fill:rgb(14.901961%,41.568627%,98.431373%);fill-opacity:1;" d="M 217.5 311.5 L 217.5 394.835938 C 217.164062 394.773438 216.828125 394.710938 216.5 394.644531 L 216.5 311.5 Z M 217.5 311.5 "/>
<path style=" stroke:none;fill-rule:nonzero;fill:rgb(14.901961%,41.568627%,98.431373%);fill-opacity:1;" d="M 199.5 88.5 L 200.5 88.5 L 200.5 119.703125 L 199.5 119.703125 Z M 199.5 88.5 "/>
<path style=" stroke:none;fill-rule:nonzero;fill:rgb(14.901961%,41.568627%,98.431373%);fill-opacity:1;" d="M 199.5 143.136719 L 200.5 143.136719 L 200.5 285.5 L 199.5 285.5 Z M 199.5 143.136719 "/>
<path style=" stroke:none;fill-rule:nonzero;fill:rgb(14.901961%,41.568627%,98.431373%);fill-opacity:1;" d="M 182.5 100 L 183.5 100 L 183.5 285.5 L 182.5 285.5 Z M 182.5 100 "/>
<path style=" stroke:none;fill-rule:nonzero;fill:rgb(14.901961%,41.568627%,98.431373%);fill-opacity:1;" d="M 165.5 115 L 166.5 115 L 166.5 175.453125 L 165.5 175.453125 Z M 165.5 115 "/>
<path style=" stroke:none;fill-rule:nonzero;fill:rgb(14.901961%,41.568627%,98.431373%);fill-opacity:1;" d="M 165.5 195.484375 L 166.5 195.484375 L 166.5 285.5 L 165.5 285.5 Z M 165.5 195.484375 "/>
<path style=" stroke:none;fill-rule:nonzero;fill:rgb(14.901961%,41.568627%,98.431373%);fill-opacity:1;" d="M 148.5 131 L 149.5 131 L 149.5 231.769531 L 148.5 231.769531 Z M 148.5 131 "/>
<path style=" stroke:none;fill-rule:nonzero;fill:rgb(14.901961%,41.568627%,98.431373%);fill-opacity:1;" d="M 148.5 250.5 L 149.5 250.5 L 149.5 285.5 L 148.5 285.5 Z M 148.5 250.5 "/>
<path style=" stroke:none;fill-rule:nonzero;fill:rgb(14.901961%,41.568627%,98.431373%);fill-opacity:1;" d="M 131.5 146 L 132.5 146 L 132.5 179.800781 L 131.5 179.800781 Z M 131.5 146 "/>
<path style=" stroke:none;fill-rule:nonzero;fill:rgb(14.901961%,41.568627%,98.431373%);fill-opacity:1;" d="M 131.5 201.910156 L 132.5 201.910156 L 132.5 285.5 L 131.5 285.5 Z M 131.5 201.910156 "/>
<path style=" stroke:none;fill-rule:nonzero;fill:rgb(14.901961%,41.568627%,98.431373%);fill-opacity:1;" d="M 114.5 154 L 115.5 154 L 115.5 285.5 L 114.5 285.5 Z M 114.5 154 "/>
<path style=" stroke:none;fill-rule:nonzero;fill:rgb(14.901961%,41.568627%,98.431373%);fill-opacity:1;" d="M 97.5 190 L 98.5 190 L 98.5 233.46875 L 97.5 233.46875 Z M 97.5 190 "/>
<path style=" stroke:none;fill-rule:nonzero;fill:rgb(14.901961%,41.568627%,98.431373%);fill-opacity:1;" d="M 97.5 253.3125 L 98.5 253.3125 L 98.5 285.5 L 97.5 285.5 Z M 97.5 253.3125 "/>
<path style=" stroke:none;fill-rule:nonzero;fill:rgb(14.901961%,41.568627%,98.431373%);fill-opacity:1;" d="M 295.1875 88.5 L 295.707031 88.5 L 295.707031 277 L 295.1875 277 Z M 295.1875 88.5 "/>
<path style=" stroke:none;fill-rule:nonzero;fill:rgb(14.901961%,41.568627%,98.431373%);fill-opacity:1;" d="M 318.5 100 L 319.5 100 L 319.5 129.71875 L 318.5 129.71875 Z M 318.5 100 "/>
<path style=" stroke:none;fill-rule:nonzero;fill:rgb(14.901961%,41.568627%,98.431373%);fill-opacity:1;" d="M 318.5 149.5625 L 319.5 149.5625 L 319.5 285.5 L 318.5 285.5 Z M 318.5 149.5625 "/>
<path style=" stroke:none;fill-rule:nonzero;fill:rgb(14.901961%,41.568627%,98.431373%);fill-opacity:1;" d="M 335.5 128.5 L 336.5 128.5 L 336.5 146 L 335.5 146 Z M 335.5 128.5 "/>
<path style=" stroke:none;fill-rule:nonzero;fill:rgb(14.901961%,41.568627%,98.431373%);fill-opacity:1;" d="M 335.5 165.625 L 336.5 165.625 L 336.5 252.554688 L 335.5 252.554688 Z M 335.5 165.625 "/>
<path style=" stroke:none;fill-rule:nonzero;fill:rgb(14.901961%,41.568627%,98.431373%);fill-opacity:1;" d="M 335.5 270.320312 L 336.5 270.320312 L 336.5 285.5 L 335.5 285.5 Z M 335.5 270.320312 "/>
<path style=" stroke:none;fill-rule:nonzero;fill:rgb(14.901961%,41.568627%,98.431373%);fill-opacity:1;" d="M 352.5 131 L 353.5 131 L 353.5 285.5 L 352.5 285.5 Z M 352.5 131 "/>
<path style=" stroke:none;fill-rule:nonzero;fill:rgb(14.901961%,41.568627%,98.431373%);fill-opacity:1;" d="M 369.5 146 L 370.5 146 L 370.5 195.484375 L 369.5 195.484375 Z M 369.5 146 "/>
<path style=" stroke:none;fill-rule:nonzero;fill:rgb(14.901961%,41.568627%,98.431373%);fill-opacity:1;" d="M 369.5 214.191406 L 370.5 214.191406 L 370.5 285.5 L 369.5 285.5 Z M 369.5 214.191406 "/>
<path style=" stroke:none;fill-rule:nonzero;fill:rgb(14.901961%,41.568627%,98.431373%);fill-opacity:1;" d="M 386.5 154 L 387.5 154 L 387.5 285.5 L 386.5 285.5 Z M 386.5 154 "/>
<path style=" stroke:none;fill-rule:nonzero;fill:rgb(14.901961%,41.568627%,98.431373%);fill-opacity:1;" d="M 217 312 C 214.238281 312 212 309.761719 212 307 C 212 304.238281 214.238281 302 217 302 C 219.761719 302 222 304.238281 222 307 C 221.996094 309.761719 219.761719 311.996094 217 312 Z M 217 303 C 214.789062 303 213 304.789062 213 307 C 213 309.210938 214.789062 311 217 311 C 219.210938 311 221 309.210938 221 307 C 220.996094 304.792969 219.207031 303.003906 217 303 Z M 217 303 "/>
<path style=" stroke:none;fill-rule:nonzero;fill:rgb(14.901961%,41.568627%,98.431373%);fill-opacity:1;" d="M 234 286 C 231.238281 286 229 283.761719 229 281 C 229 278.238281 231.238281 276 234 276 C 236.761719 276 239 278.238281 239 281 C 238.996094 283.761719 236.761719 285.996094 234 286 Z M 234 277 C 231.789062 277 230 278.789062 230 281 C 230 283.210938 231.789062 285 234 285 C 236.210938 285 238 283.210938 238 281 C 237.996094 278.792969 236.207031 277.003906 234 277 Z M 234 277 "/>
<path style=" stroke:none;fill-rule:nonzero;fill:rgb(14.901961%,41.568627%,98.431373%);fill-opacity:1;" d="M 285.5 312 C 282.738281 312 280.5 309.761719 280.5 307 C 280.5 304.238281 282.738281 302 285.5 302 C 288.261719 302 290.5 304.238281 290.5 307 C 290.496094 309.761719 288.261719 311.996094 285.5 312 Z M 285.5 303 C 283.289062 303 281.5 304.789062 281.5 307 C 281.5 309.210938 283.289062 311 285.5 311 C 287.710938 311 289.5 309.210938 289.5 307 C 289.496094 304.792969 287.707031 303.003906 285.5 303 Z M 285.5 303 "/>
<path style=" stroke:none;fill-rule:nonzero;fill:rgb(14.901961%,41.568627%,98.431373%);fill-opacity:1;" d="M 268 374.5 C 265.238281 374.5 263 376.738281 263 379.5 C 263 382.261719 265.238281 384.5 268 384.5 C 270.761719 384.5 273 382.261719 273 379.5 C 272.996094 376.742188 270.757812 374.503906 268 374.5 Z M 268 383.5 C 265.789062 383.5 264 381.710938 264 379.5 C 264 377.289062 265.789062 375.5 268 375.5 C 270.210938 375.5 272 377.289062 272 379.5 C 271.996094 381.707031 270.207031 383.496094 268 383.5 Z M 268 383.5 "/>
<path style=" stroke:none;fill-rule:nonzero;fill:rgb(14.901961%,41.568627%,98.431373%);fill-opacity:1;" d="M 268 255.5 C 265.238281 255.5 263 253.261719 263 250.5 C 263 247.738281 265.238281 245.5 268 245.5 C 270.761719 245.5 273 247.738281 273 250.5 C 272.996094 253.261719 270.761719 255.496094 268 255.5 Z M 268 246.5 C 265.789062 246.5 264 248.289062 264 250.5 C 264 252.710938 265.789062 254.5 268 254.5 C 270.210938 254.5 272 252.710938 272 250.5 C 271.996094 248.292969 270.207031 246.503906 268 246.5 Z M 268 246.5 "/>
<path style=" stroke:none;fill-rule:nonzero;fill:rgb(14.901961%,41.568627%,98.431373%);fill-opacity:1;" d="M 251 186 C 248.238281 186 246 183.761719 246 181 C 246 178.238281 248.238281 176 251 176 C 253.761719 176 256 178.238281 256 181 C 255.996094 183.761719 253.761719 185.996094 251 186 Z M 251 186 "/>
<path style=" stroke:none;fill-rule:nonzero;fill:rgb(14.901961%,41.568627%,98.431373%);fill-opacity:1;" d="M 285 131.5 C 282.238281 131.5 280 129.261719 280 126.5 C 280 123.738281 282.238281 121.5 285 121.5 C 287.761719 121.5 290 123.738281 290 126.5 C 289.996094 129.261719 287.761719 131.496094 285 131.5 Z M 285 122.5 C 282.789062 122.5 281 124.289062 281 126.5 C 281 128.710938 282.789062 130.5 285 130.5 C 287.210938 130.5 289 128.710938 289 126.5 C 288.996094 124.292969 287.207031 122.503906 285 122.5 Z M 285 122.5 "/>
<path style=" stroke:none;fill-rule:nonzero;fill:rgb(14.901961%,41.568627%,98.431373%);fill-opacity:1;" d="M 166 190.5 C 163.238281 190.5 161 188.261719 161 185.5 C 161 182.738281 163.238281 180.5 166 180.5 C 168.761719 180.5 171 182.738281 171 185.5 C 170.996094 188.261719 168.761719 190.496094 166 190.5 Z M 166 181.5 C 163.789062 181.5 162 183.289062 162 185.5 C 162 187.710938 163.789062 189.5 166 189.5 C 168.210938 189.5 170 187.710938 170 185.5 C 169.996094 183.292969 168.207031 181.503906 166 181.5 Z M 166 181.5 "/>
<path style=" stroke:none;fill-rule:nonzero;fill:rgb(14.901961%,41.568627%,98.431373%);fill-opacity:1;" d="M 132 195 C 129.238281 195 127 192.761719 127 190 C 127 187.238281 129.238281 185 132 185 C 134.761719 185 137 187.238281 137 190 C 136.996094 192.761719 134.761719 194.996094 132 195 Z M 132 186 C 129.789062 186 128 187.789062 128 190 C 128 192.210938 129.789062 194 132 194 C 134.210938 194 136 192.210938 136 190 C 135.996094 187.792969 134.207031 186.003906 132 186 Z M 132 186 "/>
<path style=" stroke:none;fill-rule:nonzero;fill:rgb(14.901961%,41.568627%,98.431373%);fill-opacity:1;" d="M 149 246 C 146.238281 246 144 243.761719 144 241 C 144 238.238281 146.238281 236 149 236 C 151.761719 236 154 238.238281 154 241 C 153.996094 243.761719 151.761719 245.996094 149 246 Z M 149 246 "/>
<path style=" stroke:none;fill-rule:nonzero;fill:rgb(14.901961%,41.568627%,98.431373%);fill-opacity:1;" d="M 285.5 74 C 282.738281 74 280.5 71.761719 280.5 69 C 280.5 66.238281 282.738281 64 285.5 64 C 288.261719 64 290.5 66.238281 290.5 69 C 290.496094 71.761719 288.261719 73.996094 285.5 74 Z M 285.5 65 C 283.289062 65 281.5 66.789062 281.5 69 C 281.5 71.210938 283.289062 73 285.5 73 C 287.710938 73 289.5 71.210938 289.5 69 C 289.496094 66.792969 287.707031 65.003906 285.5 65 Z M 285.5 65 "/>
<path style=" stroke:none;fill-rule:nonzero;fill:rgb(14.901961%,41.568627%,98.431373%);fill-opacity:1;" d="M 200 136 C 197.238281 136 195 133.761719 195 131 C 195 128.238281 197.238281 126 200 126 C 202.761719 126 205 128.238281 205 131 C 204.996094 133.761719 202.761719 135.996094 200 136 Z M 200 127 C 197.789062 127 196 128.789062 196 131 C 196 133.210938 197.789062 135 200 135 C 202.210938 135 204 133.210938 204 131 C 203.996094 128.792969 202.207031 127.003906 200 127 Z M 200 127 "/>
<path style=" stroke:none;fill-rule:nonzero;fill:rgb(14.901961%,41.568627%,98.431373%);fill-opacity:1;" d="M 183 100.5 C 180.238281 100.5 178 98.261719 178 95.5 C 178 92.738281 180.238281 90.5 183 90.5 C 185.761719 90.5 188 92.738281 188 95.5 C 187.996094 98.261719 185.761719 100.496094 183 100.5 Z M 183 91.5 C 180.789062 91.5 179 93.289062 179 95.5 C 179 97.710938 180.789062 99.5 183 99.5 C 185.210938 99.5 187 97.710938 187 95.5 C 186.996094 93.292969 185.207031 91.503906 183 91.5 Z M 183 91.5 "/>
<path style=" stroke:none;fill-rule:nonzero;fill:rgb(14.901961%,41.568627%,98.431373%);fill-opacity:1;" d="M 98 248.5 C 95.238281 248.5 93 246.261719 93 243.5 C 93 240.738281 95.238281 238.5 98 238.5 C 100.761719 238.5 103 240.738281 103 243.5 C 102.996094 246.261719 100.761719 248.496094 98 248.5 Z M 98 239.5 C 95.789062 239.5 94 241.289062 94 243.5 C 94 245.710938 95.789062 247.5 98 247.5 C 100.210938 247.5 102 245.710938 102 243.5 C 101.996094 241.292969 100.207031 239.503906 98 239.5 Z M 98 239.5 "/>
<path style=" stroke:none;fill-rule:nonzero;fill:rgb(14.901961%,41.568627%,98.431373%);fill-opacity:1;" d="M 402 190 L 403 190 L 403 233.46875 L 402 233.46875 Z M 402 190 "/>
<path style=" stroke:none;fill-rule:nonzero;fill:rgb(14.901961%,41.568627%,98.431373%);fill-opacity:1;" d="M 402 253.3125 L 403 253.3125 L 403 285.5 L 402 285.5 Z M 402 253.3125 "/>
<path style=" stroke:none;fill-rule:nonzero;fill:rgb(14.901961%,41.568627%,98.431373%);fill-opacity:1;" d="M 402.5 248.5 C 399.738281 248.5 397.5 246.261719 397.5 243.5 C 397.5 240.738281 399.738281 238.5 402.5 238.5 C 405.261719 238.5 407.5 240.738281 407.5 243.5 C 407.496094 246.261719 405.261719 248.496094 402.5 248.5 Z M 402.5 239.5 C 400.289062 239.5 398.5 241.289062 398.5 243.5 C 398.5 245.710938 400.289062 247.5 402.5 247.5 C 404.710938 247.5 406.5 245.710938 406.5 243.5 C 406.496094 241.292969 404.707031 239.503906 402.5 239.5 Z M 402.5 239.5 "/>
<path style=" stroke:none;fill-rule:nonzero;fill:rgb(14.901961%,41.568627%,98.431373%);fill-opacity:1;" d="M 370 209 C 367.238281 209 365 206.761719 365 204 C 365 201.238281 367.238281 199 370 199 C 372.761719 199 375 201.238281 375 204 C 374.996094 206.761719 372.761719 208.996094 370 209 Z M 370 200 C 367.789062 200 366 201.789062 366 204 C 366 206.210938 367.789062 208 370 208 C 372.210938 208 374 206.210938 374 204 C 373.996094 201.792969 372.207031 200.003906 370 200 Z M 370 200 "/>
<path style=" stroke:none;fill-rule:nonzero;fill:rgb(14.901961%,41.568627%,98.431373%);fill-opacity:1;" d="M 336 266.5 C 333.238281 266.5 331 264.261719 331 261.5 C 331 258.738281 333.238281 256.5 336 256.5 C 338.761719 256.5 341 258.738281 341 261.5 C 340.996094 264.261719 338.761719 266.496094 336 266.5 Z M 336 257.5 C 333.789062 257.5 332 259.289062 332 261.5 C 332 263.710938 333.789062 265.5 336 265.5 C 338.210938 265.5 340 263.710938 340 261.5 C 339.996094 259.292969 338.207031 257.503906 336 257.5 Z M 336 257.5 "/>
<path style=" stroke:none;fill-rule:nonzero;fill:rgb(14.901961%,41.568627%,98.431373%);fill-opacity:1;" d="M 234 115.5 C 231.238281 115.5 229 113.261719 229 110.5 C 229 107.738281 231.238281 105.5 234 105.5 C 236.761719 105.5 239 107.738281 239 110.5 C 238.996094 113.261719 236.761719 115.496094 234 115.5 Z M 234 115.5 "/>
<path style=" stroke:none;fill-rule:nonzero;fill:rgb(14.901961%,41.568627%,98.431373%);fill-opacity:1;" d="M 336 161 C 333.238281 161 331 158.761719 331 156 C 331 153.238281 333.238281 151 336 151 C 338.761719 151 341 153.238281 341 156 C 340.996094 158.761719 338.761719 160.996094 336 161 Z M 336 152 C 333.789062 152 332 153.789062 332 156 C 332 158.210938 333.789062 160 336 160 C 338.210938 160 340 158.210938 340 156 C 339.996094 153.792969 338.207031 152.003906 336 152 Z M 336 152 "/>
<path style=" stroke:none;fill-rule:nonzero;fill:rgb(14.901961%,41.568627%,98.431373%);fill-opacity:1;" d="M 370 146.5 C 367.238281 146.5 365 144.261719 365 141.5 C 365 138.738281 367.238281 136.5 370 136.5 C 372.761719 136.5 375 138.738281 375 141.5 C 374.996094 144.261719 372.761719 146.496094 370 146.5 Z M 370 146.5 "/>
<path style=" stroke:none;fill-rule:nonzero;fill:rgb(14.901961%,41.568627%,98.431373%);fill-opacity:1;" d="M 319 144 C 316.238281 144 314 141.761719 314 139 C 314 136.238281 316.238281 134 319 134 C 321.761719 134 324 136.238281 324 139 C 323.996094 141.761719 321.761719 143.996094 319 144 Z M 319 144 "/>
<path style=" stroke:none;fill-rule:nonzero;fill:rgb(18.431373%,18.039216%,25.490196%);fill-opacity:1;" d="M 459 144.007812 L 369.492188 142.5 L 369.507812 141.5 L 458 142.992188 L 458 100 L 459 100 Z M 459 144.007812 "/>
<path style=" stroke:none;fill-rule:nonzero;fill:rgb(18.431373%,18.039216%,25.490196%);fill-opacity:1;" d="M 319.460938 139.191406 L 318.539062 138.808594 L 365.667969 26 L 441 26 L 441 27 L 366.332031 27 Z M 319.460938 139.191406 "/>
<path style=" stroke:none;fill-rule:nonzero;fill:rgb(18.431373%,18.039216%,25.490196%);fill-opacity:1;" d="M 251.5 181.5 L 26 181.5 L 26 127 L 27 127 L 27 180.5 L 251.5 180.5 Z M 251.5 181.5 "/>
<path style=" stroke:none;fill-rule:nonzero;fill:rgb(18.431373%,18.039216%,25.490196%);fill-opacity:1;" d="M 234 111 L 84.5 111 L 84.5 50 L 85.5 50 L 85.5 110 L 234 110 Z M 234 111 "/>
<path style=" stroke:none;fill-rule:nonzero;fill:rgb(18.431373%,18.039216%,25.490196%);fill-opacity:1;" d="M 149.5 333 L 50 333 L 50 332 L 148.5 332 L 148.5 240.5 L 149.5 240.5 Z M 149.5 333 "/>
</g>
</svg>
