<?xml version="1.0" encoding="utf-8"?>
<!-- Generator: Adobe Illustrator 22.0.1, SVG Export Plug-In . SVG Version: 6.00 Build 0)  -->
<svg version="1.1" id="Layer_1" xmlns="http://www.w3.org/2000/svg" xmlns:xlink="http://www.w3.org/1999/xlink" x="0px" y="0px"
	 viewBox="0 0 800 564.4" style="enable-background:new 0 0 800 564.4;" xml:space="preserve">
<style type="text/css">
	.st0{fill:none;}
	.st1{fill:#DEEFFF;}
	.st2{clip-path:url(#SVGID_2_);}
	.st3{fill:#D6E1EE;}
	.st4{fill:#FFFFFF;}
	.st5{fill:#FFD665;}
	.st6{fill:#EEBC4A;}
	.st7{fill:#C1CDDC;}
	.st8{fill:#A4AFED;}
	.st9{fill:#7E8DE8;}
</style>
<title>Cover_Delivery conformation</title>
<g id="Layer_2_1_">
	<g id="Layer_1-2">
		<g>
			<g>
				<rect x="337.5" y="227.2" class="st0" width="416.5" height="274.9"/>
				<path class="st1" d="M144,481.4h531.2C715,396,706.4,344,691.8,317.8c-19.2-34.5-49.5-35.9-101.4-95.1
					c-38.7-44.1-28.8-51.2-53.9-72.9C476.4,98,363,89.8,306,138.7c-29.5,25.3-21.8,46.9-60.2,74.5c-36.5,26.1-52.3,13-91.1,40
					c-10.8,7.5-53.4,37.3-64.2,90.3c-5.6,27.5,0,50.2,2.4,59.4C104.1,446.4,132.6,472.1,144,481.4z"/>
			</g>
			<g>
				<defs>
					<path id="SVGID_1_" d="M387.1,482.2H720c25-53.5,19.6-86.1,10.4-102.5c-12-21.6-31-22.5-63.6-59.6
						c-24.3-27.7-18-32.1-33.8-45.7c-37.7-32.5-108.7-37.6-144.5-7c-18.5,15.9-13.7,29.4-37.7,46.7c-22.9,16.4-32.8,8.1-57.1,25.1
						c-6.8,4.7-33.5,23.4-40.2,56.6c-3.5,17.2,0,31.4,1.5,37.2C362.1,460.3,380,476.4,387.1,482.2z"/>
				</defs>
				<clipPath id="SVGID_2_">
					<use xlink:href="#SVGID_1_"  style="overflow:visible;"/>
				</clipPath>
				<g class="st2">
					<g>
						<path class="st3" d="M550.6,292.6c-4.9-0.5-9.9,0.9-13.8,4l-115.9,92.9c-3.9,3.2-6.4,7.7-7,12.7c-0.5,5,0.9,10,4,14l62.3,77.5
							c6.4,8.1,18.1,9.4,26.2,3c0,0,0.1-0.1,0.1-0.1l99.1-79.4c3.9-3.2,6.4-7.7,7-12.7l3.1-27.6c0.6-4.8-0.7-9.7-3.7-13.6
							l-48.5-63.6C560.3,295.8,555.6,293.2,550.6,292.6z"/>
						<path class="st4" d="M554.2,293.2c-4.9-0.5-9.9,0.9-13.8,4l-115.9,92.9c-3.9,3.2-6.4,7.7-7,12.7c-0.5,5,0.9,10,4,14l62.3,77.5
							c6.4,8.1,18.1,9.4,26.2,3c0,0,0.1-0.1,0.1-0.1l99.1-79.4c3.9-3.2,6.4-7.7,7-12.7l3.1-27.6c0.6-4.8-0.7-9.7-3.7-13.6
							l-48.5-63.6C563.9,296.4,559.3,293.8,554.2,293.2z"/>
						<path class="st5" d="M577.6,402.2l-67.8,55.1c-4.1,3.4-10.2,2.8-13.6-1.4c0,0-0.1-0.1-0.1-0.1l-32.4-41.4
							c-3.4-4.3-2.7-10.5,1.5-13.9c0,0,0,0,0,0l67.8-55.1c4.1-3.4,10.2-2.8,13.6,1.4c0,0,0.1,0.1,0.1,0.1l32.4,41.4
							C582.6,392.6,581.9,398.8,577.6,402.2C577.6,402.2,577.6,402.2,577.6,402.2z"/>
						<path class="st6" d="M579.2,388.3l-8.8-11.2l-2.1-2.6l-21.7-27.6c-1.6-2.1-4-3.5-6.6-3.7c-2.6-0.3-5.3,0.5-7.3,2.2l-7.7,6.2
							l-5.5,4.4l-16.5,13.4l-1,0.8l-20.8,17.3l-5.5,4.4l-10.6,8.5c-4.3,3.4-5,9.6-1.6,13.9c0,0,0,0,0,0l8.6,11l2.3,2.8l11,14
							l4.4,5.5l6.3,8.1c1.6,2.1,4,3.5,6.6,3.7c2.6,0.3,5.3-0.5,7.3-2.2l10.4-8.5l5.5-4.4l51.7-42
							C581.9,398.8,582.6,392.6,579.2,388.3C579.2,388.3,579.2,388.3,579.2,388.3z M523.2,360.4l9.1,11.6l-16.5,13.5l-9.1-11.6
							L523.2,360.4z M501,378.3l9.1,11.6l-16.5,13.5l-9.1-11.6L501,378.3z M468.6,404.7l10.4-8.5l9.1,11.6L474.2,419l-6.5-8.1
							C466.4,408.9,466.8,406.3,468.6,404.7L468.6,404.7z M478.8,424.7l63.4-51.7l-2.3-2.8l-11.2-14.4l7.7-6.4c0.9-0.7,2-1,3.1-1
							c1.1,0.1,2.2,0.7,2.8,1.6l21.7,27.8l-74.4,60.6L478.8,424.7z M551.9,397.1l9.1,11.6L544.5,422l-9.1-11.6L551.9,397.1z
							 M506.4,453c-0.9,0.7-2,1-3.1,1c-1.1-0.1-2.2-0.7-2.8-1.6l-6.5-8.1l13.8-11.2l9.1,11.6L506.4,453z M513.4,428.4l16.5-13.5
							l9.1,11.6l-16.5,13.4L513.4,428.4z M574.2,397.9l-7.7,6.2l-9.1-11.6l11-9l6.3,8.1C576.3,393.5,576.1,396.3,574.2,397.9
							C574.2,397.9,574.2,397.9,574.2,397.9L574.2,397.9z"/>
					</g>
					<g>
						<path class="st3" d="M633.7,332.5c-4.1-2.8-9.1-4-14-3.1l-146.3,25.8c-5,0.9-9.4,3.7-12.2,7.8c-2.9,4.1-4,9.2-3.2,14.2
							l17.4,97.9c1.7,10.2,11.4,17,21.5,15.3c0.1,0,0.1,0,0.2,0l125-22.1c4.9-0.9,9.3-3.7,12.2-7.8l16-22.8c2.8-4,4-8.9,3.3-13.7
							l-12-79C640.7,340,637.9,335.5,633.7,332.5z"/>
						<path class="st4" d="M637.1,333.8c-4.1-2.8-9.1-4-14-3.1l-146.3,25.8c-5,0.9-9.4,3.7-12.2,7.8c-2.9,4.1-4,9.2-3.2,14.2
							l17.4,97.9c1.7,10.2,11.4,17,21.5,15.3c0.1,0,0.1,0,0.2,0l125-22.1c4.9-0.9,9.3-3.7,12.2-7.8l16-22.8c2.8-4,4-8.9,3.3-13.7
							l-12-79C644.1,341.3,641.3,336.8,637.1,333.8z"/>
						<path class="st5" d="M605.3,440.7l-85.9,15.7c-5.3,1-10.3-2.5-11.3-7.7c0-0.1,0-0.1,0-0.2l-8.6-51.9c-0.9-5.4,2.6-10.5,8-11.5
							c0,0,0,0,0,0l85.9-15.7c5.3-1,10.3,2.5,11.3,7.7c0,0.1,0,0.1,0,0.2l8.6,51.9C614.3,434.6,610.7,439.7,605.3,440.7
							C605.3,440.7,605.3,440.7,605.3,440.7z"/>
						<path class="st6" d="M613.4,429.2l-2.3-14l-0.6-3.3l-5.8-34.7c-0.4-2.6-1.8-5-4-6.4c-2.1-1.5-4.8-2.1-7.4-1.6l-9.7,1.7
							l-6.9,1.2l-20.9,3.8l-1.3,0.2l-26.6,5.2l-6.9,1.2l-13.3,2.3c-5.4,0.9-9,6.1-8,11.4c0,0,0,0,0,0l2.3,13.7l0.6,3.6l3,17.6
							l1.2,6.9l1.6,10.2c0.4,2.6,1.8,5,4,6.4c2.1,1.5,4.8,2.1,7.4,1.6l13.2-2.4l6.9-1.2l65.6-12
							C610.7,439.7,614.3,434.6,613.4,429.2C613.4,429.2,613.4,429.2,613.4,429.2L613.4,429.2z M577.7,377.9l2.4,14.5l-21,3.9
							l-2.4-14.5L577.7,377.9z M549.6,382.9l2.4,14.5l-21,3.9l-2.4-14.5L549.6,382.9z M508.5,390.5l13.2-2.4l2.4,14.5l-17.5,3.2
							l-1.8-10.3C504.6,393.2,506.2,391,508.5,390.5z M507.8,413l80.4-14.9l-0.6-3.6l-2.9-18l9.9-1.9c1.1-0.2,2.2,0,3.2,0.6
							c1,0.6,1.6,1.6,1.7,2.7l5.7,34.8l-94.3,17.5L507.8,413z M585.2,423.9l2.4,14.5l-20.9,3.8l-2.4-14.5L585.2,423.9z M518.5,451
							c-1.1,0.2-2.2,0-3.2-0.6c-1-0.6-1.6-1.6-1.7-2.7l-1.8-10.3l17.5-3.2l2.4,14.5L518.5,451z M536.4,432.8l21-3.9l2.4,14.5
							l-20.9,3.8L536.4,432.8z M604.4,435.3l-9.7,1.7l-2.4-14.5l14-2.6l1.6,10.2C608.3,432.4,606.8,434.8,604.4,435.3
							C604.4,435.3,604.4,435.3,604.4,435.3z"/>
					</g>
				</g>
			</g>
			<g>
				<path class="st7" d="M482.7,381.6l-2.9,0.5c-0.3,0.1-0.6-0.1-0.6-0.4l-5.8-12.5c-0.2-0.3,0-0.5,0.4-0.6l2.1-0.4
					c0.3-0.1,0.5,0.1,0.6,0.4l4.3,10.4l0.1,0l0.4-11.2c0-0.3,0.2-0.5,0.5-0.6l2.1-0.4c0.4-0.1,0.6,0.1,0.5,0.4l-1.1,13.7
					C483.2,381.4,483,381.6,482.7,381.6z"/>
				<path class="st7" d="M489,366.4l2.4,13.2c0.1,0.2-0.1,0.5-0.3,0.5c0,0-0.1,0-0.1,0l-1.9,0.3c-0.2,0.1-0.5,0-0.5-0.3
					c0,0,0-0.1,0-0.1l-2.4-13.2c-0.1-0.2,0-0.5,0.3-0.5c0,0,0.1,0,0.1,0l1.9-0.3c0.2-0.1,0.5,0,0.5,0.3
					C489,366.4,489,366.4,489,366.4z"/>
				<path class="st7" d="M496.8,379.1l-1.9,0.3c-0.2,0.1-0.5,0-0.5-0.3c0,0,0-0.1,0-0.1l-2.4-13.2c-0.1-0.2,0.1-0.5,0.3-0.5
					c0,0,0.1,0,0.1,0l5.3-1c1-0.2,2-0.1,2.9,0.5c0.8,0.6,1.3,1.5,1.5,2.5l0.3,1.7c0.4,1.4-0.2,2.9-1.4,3.6l0,0.1l3.3,4.5
					c0.2,0.3,0.1,0.5-0.3,0.6l-1.8,0.3c-0.2,0-0.4,0.1-0.6,0c-0.2-0.1-0.3-0.2-0.4-0.3l-3.1-4.3l-1.5,0.3c-0.2,0-0.3,0.1-0.2,0.3
					l0.8,4.5c0.1,0.2-0.1,0.5-0.3,0.5C496.9,379.1,496.9,379.1,496.8,379.1z M496.2,371.6l2.2-0.4c0.4,0,0.7-0.2,1-0.5
					c0.2-0.3,0.3-0.7,0.2-1l-0.3-1.7c0-0.4-0.2-0.7-0.5-0.9c-0.3-0.2-0.7-0.2-1.1-0.1l-2.2,0.4c-0.1,0-0.2,0.1-0.2,0.2
					c0,0,0,0,0,0.1l0.7,3.8C495.9,371.5,496,371.6,496.2,371.6C496.2,371.6,496.2,371.6,496.2,371.6L496.2,371.6z"/>
				<path class="st7" d="M511.1,376.6l-1.9,0.3c-0.3,0.1-0.5-0.1-0.6-0.4l-2-11c0-0.1-0.1-0.2-0.2-0.2c0,0,0,0-0.1,0l-2.5,0.5
					c-0.2,0.1-0.5,0-0.5-0.3c0,0,0-0.1,0-0.1l-0.3-1.5c-0.1-0.2,0.1-0.5,0.3-0.5c0,0,0.1,0,0.1,0l8.4-1.5c0.2-0.1,0.5,0,0.5,0.3
					c0,0,0,0.1,0,0.1l0.3,1.5c0.1,0.2-0.1,0.5-0.3,0.5c0,0-0.1,0-0.1,0l-2.5,0.5c-0.2,0-0.3,0.1-0.2,0.3l2,11
					c0.1,0.2-0.1,0.5-0.3,0.5C511.2,376.5,511.1,376.6,511.1,376.6z"/>
				<path class="st7" d="M521.3,360.2l1.9-0.3c0.3-0.1,0.5,0.1,0.6,0.4l1.8,10.1c0.2,1,0.1,2-0.5,2.8c-0.6,0.8-1.5,1.3-2.5,1.4
					l-2.5,0.4c-1,0.2-2,0.1-2.9-0.4c-0.8-0.6-1.3-1.5-1.4-2.5L514,362c-0.1-0.2,0.1-0.5,0.3-0.5c0,0,0.1,0,0.1,0l1.9-0.3
					c0.2-0.1,0.5,0,0.5,0.3c0,0,0,0.1,0,0.1l1.8,9.9c0,0.4,0.2,0.7,0.5,0.9c0.3,0.2,0.7,0.2,1,0.1l1.5-0.3c0.4,0,0.7-0.2,1-0.5
					c0.2-0.3,0.2-0.7,0.1-1.1l-1.8-9.9c-0.1-0.2,0.1-0.5,0.3-0.5C521.3,360.2,521.3,360.2,521.3,360.2z"/>
				<path class="st7" d="M530.5,373.1l-2.1,0.4c-0.3,0-0.4-0.1-0.3-0.4l1.2-13.8c0-0.3,0.3-0.6,0.6-0.6l3-0.5c0.3-0.1,0.6,0,0.8,0.3
					l5.9,12.5c0.1,0.3,0.1,0.5-0.2,0.5l-2.1,0.4c-0.1,0-0.2,0-0.4,0c-0.1-0.1-0.2-0.2-0.2-0.3l-1.1-2.3l-4.3,0.8l-0.2,2.5
					c0,0.1,0,0.3-0.1,0.4C530.7,373,530.6,373.1,530.5,373.1z M531.7,361.1l-0.5,6.6l3.3-0.6L531.7,361.1L531.7,361.1z"/>
				<path class="st7" d="M549.2,369.7l-7.3,1.3c-0.2,0.1-0.5,0-0.5-0.3c0,0,0-0.1,0-0.1l-2.4-13.2c-0.1-0.2,0.1-0.5,0.3-0.5
					c0,0,0.1,0,0.1,0l1.9-0.3c0.2-0.1,0.5,0,0.5,0.3c0,0,0,0.1,0,0.1l2,11c0,0.2,0.1,0.2,0.3,0.2l4.7-0.8c0.3-0.1,0.5,0.1,0.5,0.4
					l0.3,1.5c0.1,0.2,0,0.4-0.3,0.5C549.3,369.7,549.3,369.7,549.2,369.7z"/>
				<path class="st7" d="M558.7,368l-1.9,0.3c-0.2,0.1-0.5,0-0.5-0.3c0,0,0-0.1,0-0.1l-2.4-13.2c-0.1-0.2,0-0.5,0.3-0.5
					c0,0,0.1,0,0.1,0l1.7-0.3c0.2-0.1,0.5,0,0.7,0.2l6,7.5l0.1,0l-1.5-8.2c-0.1-0.2,0-0.5,0.3-0.5c0,0,0.1,0,0.1,0l1.9-0.3
					c0.2-0.1,0.5,0,0.5,0.3c0,0,0,0.1,0,0.1l2.4,13.2c0.1,0.2-0.1,0.5-0.3,0.5c0,0-0.1,0-0.1,0l-1.6,0.3c-0.3,0.1-0.6-0.1-0.8-0.3
					l-5.9-7.4l-0.1,0l1.5,8.1c0.1,0.2-0.1,0.5-0.3,0.5C558.8,368,558.7,368,558.7,368z"/>
				<path class="st7" d="M574.2,350.7l1.9-0.3c0.3-0.1,0.5,0.1,0.6,0.4l1.8,10.1c0.2,1,0.1,2-0.5,2.8c-0.6,0.8-1.5,1.3-2.5,1.4
					l-2.5,0.4c-1,0.2-2,0.1-2.9-0.4c-0.8-0.6-1.3-1.5-1.4-2.5l-1.8-10.1c-0.1-0.2,0.1-0.5,0.3-0.5c0,0,0.1,0,0.1,0l1.9-0.3
					c0.2-0.1,0.5,0,0.5,0.3c0,0,0,0.1,0,0.1l1.8,9.9c0,0.4,0.2,0.7,0.5,0.9c0.3,0.2,0.7,0.2,1,0.1l1.5-0.3c0.4,0,0.7-0.2,1-0.5
					c0.2-0.3,0.2-0.7,0.1-1.1l-1.8-9.9c-0.1-0.2,0.1-0.5,0.3-0.5C574.1,350.7,574.2,350.7,574.2,350.7z"/>
				<path class="st7" d="M588.9,348.1l3.3-0.6c0.2-0.1,0.5,0,0.5,0.3c0,0,0,0.1,0,0.1l2.4,13.2c0.1,0.2-0.1,0.5-0.3,0.5
					c0,0-0.1,0-0.1,0l-1.8,0.3c-0.2,0.1-0.5,0-0.5-0.3c0,0,0-0.1,0-0.1l-1.9-10.4l-0.1,0l-1,7.7c0,0.3-0.2,0.5-0.5,0.5l-1.9,0.3
					c-0.3,0.1-0.5-0.1-0.6-0.3l-3.6-6.9l-0.1,0l1.9,10.4c0,0.1,0,0.3,0,0.4c-0.1,0.1-0.2,0.2-0.4,0.2l-1.8,0.3
					c-0.2,0.1-0.5,0-0.5-0.3c0,0,0-0.1,0-0.1l-2.4-13.2c-0.1-0.2,0.1-0.5,0.3-0.5c0,0,0.1,0,0.1,0l3.3-0.6c0.2,0,0.4,0.1,0.5,0.2
					l3.7,7.3l0.1,0l1-8.2C588.5,348.3,588.7,348.1,588.9,348.1z"/>
				<path class="st7" d="M598,360.5l-2.4-13.2c-0.1-0.2,0-0.5,0.3-0.5c0,0,0.1,0,0.1,0l5.4-1c1-0.2,2-0.1,2.9,0.4
					c0.8,0.6,1.3,1.5,1.4,2.5l0.2,0.9c0.3,1.1-0.3,2.3-1.3,2.7c1.2-0.1,2.3,0.8,2.4,2c0,0,0,0,0,0l0.2,1.3c0.2,1,0.1,2-0.5,2.8
					c-0.6,0.8-1.5,1.3-2.5,1.4l-5.6,1c-0.2,0.1-0.5,0-0.5-0.3C598,360.6,598,360.6,598,360.5z M599.7,352.1l2.3-0.4
					c0.4,0,0.7-0.2,1-0.5c0.2-0.3,0.3-0.7,0.2-1l-0.2-0.9c0-0.4-0.2-0.7-0.5-0.9c-0.3-0.2-0.7-0.2-1.1-0.1l-2.3,0.4
					c-0.1,0-0.2,0.1-0.2,0.2c0,0,0,0,0,0.1l0.5,2.9C599.4,352,599.5,352.1,599.7,352.1C599.6,352.1,599.6,352.1,599.7,352.1z
					 M600.7,358.1l2.5-0.4c0.4,0,0.7-0.2,1-0.5c0.2-0.3,0.2-0.7,0.1-1l-0.2-1.3c0-0.4-0.2-0.7-0.5-0.9c-0.4-0.2-0.8-0.2-1.1-0.1
					l-2.5,0.4c-0.1,0-0.2,0.1-0.2,0.2c0,0,0,0,0,0.1l0.6,3.3C600.5,358,600.6,358.1,600.7,358.1
					C600.7,358.1,600.7,358.1,600.7,358.1L600.7,358.1z"/>
				<path class="st7" d="M618.2,357.4l-7.3,1.3c-0.2,0.1-0.5,0-0.5-0.3c0,0,0-0.1,0-0.1l-2.4-13.2c-0.1-0.2,0-0.5,0.3-0.5
					c0,0,0.1,0,0.1,0l7.3-1.3c0.2-0.1,0.4,0.1,0.5,0.3c0,0,0,0.1,0,0.1l0.3,1.5c0.1,0.2,0,0.4-0.3,0.5c0,0-0.1,0-0.1,0l-4.7,0.8
					c-0.2,0-0.3,0.1-0.2,0.3l0.5,2.9c0,0.2,0.1,0.2,0.3,0.2l3.8-0.7c0.2-0.1,0.5,0,0.5,0.3c0,0,0,0.1,0,0.1l0.3,1.5
					c0.1,0.2-0.1,0.5-0.3,0.5c0,0-0.1,0-0.1,0l-3.8,0.7c-0.2,0-0.3,0.1-0.2,0.3l0.5,3c0,0.2,0.1,0.2,0.3,0.2l4.7-0.8
					c0.2-0.1,0.4,0.1,0.5,0.3c0,0,0,0.1,0,0.1l0.3,1.5c0.1,0.2,0,0.4-0.3,0.5C618.3,357.4,618.2,357.4,618.2,357.4z"/>
				<path class="st7" d="M623.5,356.4l-1.9,0.3c-0.2,0.1-0.5,0-0.5-0.3c0,0,0-0.1,0-0.1l-2.4-13.2c-0.1-0.2,0-0.5,0.3-0.5
					c0,0,0.1,0,0.1,0l5.3-1c1-0.2,2-0.1,2.9,0.5c0.8,0.6,1.3,1.5,1.5,2.5l0.3,1.7c0.4,1.4-0.2,2.9-1.4,3.6l0,0.1l3.3,4.5
					c0.2,0.3,0.1,0.5-0.3,0.6l-1.8,0.3c-0.2,0-0.4,0.1-0.6,0c-0.2-0.1-0.3-0.2-0.4-0.3l-3.1-4.3l-1.5,0.3c-0.2,0-0.3,0.1-0.2,0.3
					l0.8,4.5c0.1,0.2-0.1,0.5-0.3,0.5C623.6,356.4,623.5,356.4,623.5,356.4z M622.9,348.9l2.2-0.4c0.4,0,0.7-0.2,1-0.5
					c0.2-0.3,0.3-0.7,0.2-1l-0.3-1.7c0-0.4-0.2-0.7-0.5-0.9c-0.3-0.2-0.7-0.2-1.1-0.1l-2.2,0.4c-0.1,0-0.2,0.1-0.2,0.2
					c0,0,0,0,0,0.1l0.7,3.8C622.6,348.8,622.7,348.9,622.9,348.9C622.8,348.9,622.9,348.9,622.9,348.9z"/>
			</g>
		</g>
	</g>
</g>
<path class="st8" d="M179.2,52.1h182.3c16.9,0,30.5,13.7,30.5,30.5V450c0,16.9-13.7,30.5-30.5,30.5H179.2
	c-16.9,0-30.5-13.7-30.5-30.5V82.7C148.7,65.8,162.4,52.1,179.2,52.1z"/>
<rect x="165.5" y="129.3" class="st4" width="209.8" height="265.6"/>
<path class="st9" d="M243.9,83.5h52.9c4.2,0,7.6,3.4,7.6,7.6v0c0,4.2-3.4,7.6-7.6,7.6h-52.9c-4.2,0-7.6-3.4-7.6-7.6v0
	C236.4,86.8,239.8,83.5,243.9,83.5z"/>
<circle class="st9" cx="270.4" cy="433.5" r="21.4"/>
<path class="st9" d="M207.6,253c14.1,34.6,41.5,62,76.1,76.1c15.7,6.4,33.7,2.8,45.6-9.2l3.6-3.6c4.4-4.4,4.5-11.6,0-16.1
	c-0.6-0.6-1.4-1.2-2.1-1.7l-22.6-13.4c-5-3-11.3-2.2-15.4,1.9l-5.1,5.2c-1.3,1.3-3.2,1.7-4.9,0.9c-17.5-7.7-31.5-21.7-39.2-39.3
	c-0.8-1.7-0.4-3.6,0.9-4.9l5.2-5.2c4.1-4.1,4.9-10.4,1.9-15.4l-13.4-22.5c-0.5-0.8-1.1-1.5-1.7-2.1c-4.4-4.4-11.6-4.4-16,0l-3.6,3.6
	C204.8,219.3,201.2,237.3,207.6,253z"/>
</svg>
